<?xml version="1.0" encoding="UTF-8"?><svg id="a" xmlns="http://www.w3.org/2000/svg" width="507.2" height="507.2" viewBox="0 0 507.2 507.2"><defs><style>.b{fill:#fff;}.c{fill:#c9006e;}.d{fill:#ed55a8;}</style></defs><circle class="d" cx="253.6" cy="253.6" r="253.6"/><path class="c" d="M162.55,364.11c37.79,47.37,75.58,94.75,113.37,142.12,22.46-1.99,55.73-7.86,92.57-26.49,1.58-.8,4.83-2.47,8.8-4.67,24.65-13.69,77.76-48.4,107.43-114.19,9.26-20.53,13.8-38.69,16.17-50.82l-115.57-127.06c-74.26,60.37-148.51,120.74-222.77,181.12Z"/><g><path class="b" d="M312.6,133.6c11.2-11.2,30.4-11.2,41.6,0l23.2,23.2c11.2,11.2,11.2,30.4,0,41.6l-176,175.2c-11.2,11.2-30.4,11.2-41.6,0l-23.2-23.2c-11.2-11.2-11.2-30.4,0-41.6l176-175.2Z"/><path class="b" d="M369.8,309.2c11.2,11.2,11.2,30.4,0,41.6l-23.2,23.2c-11.2,11.2-30.4,11.2-41.6,0L129.8,198c-11.2-11.2-11.2-30.4,0-41.6l23.2-23.2c11.2-11.2,30.4-11.2,41.6,0l175.2,176Z"/></g></svg>