<?xml version="1.0" encoding="UTF-8"?><svg id="a" xmlns="http://www.w3.org/2000/svg" width="352" height="512" viewBox="0 0 352 512"><defs><style>.b{fill:#fff;}.c{fill:#f2508b;}.d{fill:#56c793;}.e{fill:#0c7a63;}</style></defs><path class="e" d="M304,512H48c-8.84,0-16-7.16-16-16V232c0-8.84,7.16-16,16-16H304c8.84,0,16,7.16,16,16V496c0,8.84-7.16,16-16,16Z"/><path class="e" d="M304,248v240c0,4.42-3.58,8-8,8H48.38c-10.25,0-10.9,15.83-.65,16,.09,0,.18,0,.26,0H304c8.84,0,16-7.16,16-16V232h0c-8.84,0-16,7.16-16,16Z"/><path class="b" d="M256.03,376c-4.42,0-8-3.58-8-8s3.58-8,8-8h7.58c-3.81-42.21-37.39-75.79-79.6-79.6v7.58c0,4.42-3.58,8-8,8s-8-3.58-8-8v-7.58c-42.21,3.81-75.79,37.39-79.6,79.6h7.58c4.42,0,8,3.58,8,8s-3.58,8-8,8h-7.58c3.81,42.21,37.38,75.79,79.6,79.6v-7.58c0-4.42,3.58-8,8-8s8,3.58,8,8v7.58c42.21-3.81,75.79-37.39,79.6-79.6h-7.58Z"/><path class="c" d="M164.7,379.33c-6.25-6.25-6.25-16.38,0-22.63,0,0,50.32-40.19,56.57-33.94,6.25,6.25-33.94,56.57-33.94,56.57-6.25,6.25-16.38,6.25-22.63,0Z"/><path class="e" d="M352,16c0-8.84-7.17-16-16-16H16C7.17,0,0,7.16,0,16s7.17,16,16,16h0c0,70.69,57.31,128,128,128h64c70.69,0,128-57.31,128-128h0c8.84,0,16-7.16,16-16Z"/><path class="d" d="M335.49,42.07c.29-3.32,.51-6.67,.51-10.07H16v.16c0,8.75,7.1,15.84,15.85,15.84h255.29c8.63,0,14.75,8.22,12.56,16.57-.65,2.49-1.38,4.96-2.18,7.39-14.24,43.41-55.75,72.04-101.44,72.04h-36.09c-8.84,0-16,7.16-16,16h64c3.62,0,6.58-.17,9.17-.46,63.06-4.48,113.41-54.53,118.32-117.47Z"/><rect class="d" x="152.02" y="160" width="48" height="56"/></svg>